<svg width="74" height="75" viewBox="0 0 74 75" fill="none" xmlns="http://www.w3.org/2000/svg">
<rect x="1" y="1" width="72" height="73" fill="#FBF9F6" stroke="#534F4B" stroke-width="2"/>
<line x1="1" y1="51" x2="72" y2="51" stroke="#534F4B" stroke-width="2"/>
<line x1="42.5" y1="52" x2="42.5" y2="73" stroke="#534F4B"/>
<line x1="11.5" y1="73" x2="11.5" y2="65" stroke="#534F4B"/>
<line x1="21.5" y1="73" x2="21.5" y2="65" stroke="#534F4B"/>
<line x1="31.5" y1="73" x2="31.5" y2="65" stroke="#534F4B"/>
<line x1="52.5" y1="73" x2="52.5" y2="65" stroke="#534F4B"/>
<line x1="62.5" y1="73" x2="62.5" y2="65" stroke="#534F4B"/>
<rect x="9" y="52" width="5" height="14" fill="#534F4B"/>
<rect x="9" y="52" width="5" height="14" fill="#534F4B"/>
<rect x="9" y="52" width="5" height="14" fill="#534F4B"/>
<rect x="19" y="52" width="5" height="14" fill="#534F4B"/>
<rect x="19" y="52" width="5" height="14" fill="#534F4B"/>
<rect x="19" y="52" width="5" height="14" fill="#534F4B"/>
<rect x="29" y="52" width="5" height="14" fill="#534F4B"/>
<rect x="29" y="52" width="5" height="14" fill="#534F4B"/>
<rect x="29" y="52" width="5" height="14" fill="#534F4B"/>
<rect x="50" y="52" width="5" height="14" fill="#534F4B"/>
<rect x="50" y="52" width="5" height="14" fill="#534F4B"/>
<rect x="50" y="52" width="5" height="14" fill="#534F4B"/>
<rect x="60" y="52" width="5" height="14" fill="#534F4B"/>
<rect x="60" y="52" width="5" height="14" fill="#534F4B"/>
<rect x="60" y="52" width="5" height="14" fill="#534F4B"/>
<rect x="4" y="4" width="66" height="46" fill="#FFD226"/>
<path d="M6.81 15.842C6.81 15.578 6.87 15.404 6.99 15.32C7.122 15.224 7.368 15.176 7.728 15.176C8.592 15.176 9.03 15.392 9.042 15.824L9.312 21.224L9.33 26.822H12.822C13.41 26.822 13.704 27.038 13.704 27.47C13.704 28.25 13.59 28.718 13.362 28.874C13.242 28.958 13.086 29 12.894 29H7.098L6.81 28.712V15.842ZM18.7543 28.442C18.1303 29.006 17.5723 29.288 17.0803 29.288C16.6003 29.288 16.2103 29.252 15.9103 29.18C15.6103 29.12 15.3403 28.982 15.1003 28.766C14.8603 28.538 14.6923 28.214 14.5963 27.794C14.5003 27.374 14.4523 26.816 14.4523 26.12C14.4523 25.148 14.9263 24.482 15.8743 24.122L18.4483 23.456C18.4363 22.676 18.3583 22.172 18.2143 21.944C18.0703 21.716 17.7583 21.602 17.2783 21.602C16.7983 21.602 16.3843 21.68 16.0363 21.836L15.4063 22.088H15.3883C15.2803 22.148 15.1843 22.1 15.1003 21.944C14.8843 21.488 14.7763 21.134 14.7763 20.882C14.7763 20.618 14.7943 20.474 14.8303 20.45C14.8783 20.414 14.9023 20.39 14.9023 20.378C15.5023 19.982 16.2763 19.784 17.2243 19.784C18.1843 19.784 18.9223 19.91 19.4383 20.162C19.9543 20.414 20.3263 20.876 20.5543 21.548C20.7943 22.208 20.9143 23.192 20.9143 24.5L20.8783 29C20.8783 29.072 20.8663 29.12 20.8423 29.144C20.7943 29.24 20.5663 29.288 20.1583 29.288C19.4143 29.288 19.0423 29.192 19.0423 29L18.7543 28.442ZM16.4503 26.156C16.4503 27.02 16.7023 27.476 17.2063 27.524C17.5543 27.524 17.8063 27.464 17.9623 27.344C18.2983 27.116 18.4663 26.264 18.4663 24.788C17.8423 24.872 17.3503 25.046 16.9903 25.31C16.6303 25.562 16.4503 25.844 16.4503 26.156ZM27.2358 29V15.464H33.4458C34.0818 15.476 34.3998 15.65 34.3998 15.986C34.3998 16.598 34.3338 17.024 34.2018 17.264C34.0698 17.504 33.7878 17.624 33.3558 17.624H29.5398L29.7198 20.81H33.4818C33.9738 20.81 34.2198 21.002 34.2198 21.386C34.2198 22.01 34.1658 22.436 34.0578 22.664C33.9498 22.88 33.7218 22.988 33.3738 22.988H29.7558V29C29.7558 29.072 29.7498 29.12 29.7378 29.144C29.6778 29.24 29.4438 29.288 29.0358 29.288C28.6398 29.288 28.2378 29.258 27.8298 29.198C27.4338 29.138 27.2358 29.072 27.2358 29ZM39.2679 28.442C38.6439 29.006 38.0859 29.288 37.5939 29.288C37.1139 29.288 36.7239 29.252 36.4239 29.18C36.1239 29.12 35.8539 28.982 35.6139 28.766C35.3739 28.538 35.2059 28.214 35.1099 27.794C35.0139 27.374 34.9659 26.816 34.9659 26.12C34.9659 25.148 35.4399 24.482 36.3879 24.122L38.9619 23.456C38.9499 22.676 38.8719 22.172 38.7279 21.944C38.5839 21.716 38.2719 21.602 37.7919 21.602C37.3119 21.602 36.8979 21.68 36.5499 21.836L35.9199 22.088H35.9019C35.7939 22.148 35.6979 22.1 35.6139 21.944C35.3979 21.488 35.2899 21.134 35.2899 20.882C35.2899 20.618 35.3079 20.474 35.3439 20.45C35.3919 20.414 35.4159 20.39 35.4159 20.378C36.0159 19.982 36.7899 19.784 37.7379 19.784C38.6979 19.784 39.4359 19.91 39.9519 20.162C40.4679 20.414 40.8399 20.876 41.0679 21.548C41.3079 22.208 41.4279 23.192 41.4279 24.5L41.3919 29C41.3919 29.072 41.3799 29.12 41.3559 29.144C41.3079 29.24 41.0799 29.288 40.6719 29.288C39.9279 29.288 39.5559 29.192 39.5559 29L39.2679 28.442ZM36.9639 26.156C36.9639 27.02 37.2159 27.476 37.7199 27.524C38.0679 27.524 38.3199 27.464 38.4759 27.344C38.8119 27.116 38.9799 26.264 38.9799 24.788C38.3559 24.872 37.8639 25.046 37.5039 25.31C37.1439 25.562 36.9639 25.844 36.9639 26.156ZM47.5942 19.784C48.4822 19.784 49.1302 20.06 49.5382 20.612C49.9582 21.164 50.1682 22.136 50.1682 23.528V29C50.1682 29.072 50.1622 29.12 50.1502 29.144C50.0902 29.24 49.8562 29.288 49.4482 29.288C49.0522 29.288 48.6442 29.258 48.2242 29.198C47.8042 29.138 47.5942 29.072 47.5942 29L47.5762 23.528C47.5762 22.184 47.4802 21.512 47.2882 21.512C46.8562 21.512 46.2802 21.728 45.5602 22.16V29C45.5602 29.072 45.5542 29.12 45.5422 29.144C45.4822 29.24 45.2482 29.288 44.8402 29.288C44.4442 29.288 44.0302 29.258 43.5982 29.198C43.1782 29.138 42.9682 29.072 42.9682 29V20.072C42.9682 19.88 43.2082 19.784 43.6882 19.784C44.4442 19.784 44.8762 19.88 44.9842 20.072C44.9842 20.096 44.9902 20.108 45.0022 20.108L45.3442 20.792C46.3522 20.12 47.1022 19.784 47.5942 19.784ZM57.5533 17.228C57.2053 17.072 56.7853 16.994 56.2933 16.994C55.8013 16.994 55.4833 17.222 55.3393 17.678C55.1953 18.134 55.1233 18.932 55.1233 20.072H56.8513C57.0433 20.072 57.1393 20.312 57.1393 20.792C57.1393 21.272 57.0433 21.512 56.8513 21.512H55.2673V33.032C55.2673 33.104 55.2553 33.152 55.2313 33.176C55.1833 33.272 54.9553 33.32 54.5473 33.32C54.1513 33.32 53.7493 33.29 53.3413 33.23C52.9333 33.17 52.7293 33.104 52.7293 33.032V21.512H51.2893C51.1453 21.512 51.0613 21.482 51.0373 21.422C51.0253 21.35 51.0193 21.272 51.0193 21.188C51.0193 20.672 51.1093 20.396 51.2893 20.36L52.7293 20.072C52.7293 18.14 52.9813 16.844 53.4853 16.184C54.0013 15.512 54.9913 15.176 56.4553 15.176C57.4033 15.176 58.1473 15.38 58.6873 15.788H58.7053C58.8133 15.848 58.8673 15.956 58.8673 16.112C58.8673 16.256 58.8433 16.424 58.7953 16.616C58.7473 16.808 58.6873 16.982 58.6153 17.138C58.5553 17.294 58.4953 17.402 58.4353 17.462C58.3753 17.522 58.3213 17.546 58.2733 17.534C58.2373 17.522 58.2193 17.51 58.2193 17.498L57.5533 17.228ZM62.5238 28.442C61.8998 29.006 61.3418 29.288 60.8498 29.288C60.3698 29.288 59.9798 29.252 59.6798 29.18C59.3798 29.12 59.1098 28.982 58.8698 28.766C58.6298 28.538 58.4618 28.214 58.3658 27.794C58.2698 27.374 58.2218 26.816 58.2218 26.12C58.2218 25.148 58.6958 24.482 59.6438 24.122L62.2178 23.456C62.2058 22.676 62.1278 22.172 61.9838 21.944C61.8398 21.716 61.5278 21.602 61.0478 21.602C60.5678 21.602 60.1538 21.68 59.8058 21.836L59.1758 22.088H59.1578C59.0498 22.148 58.9538 22.1 58.8698 21.944C58.6538 21.488 58.5458 21.134 58.5458 20.882C58.5458 20.618 58.5638 20.474 58.5998 20.45C58.6478 20.414 58.6718 20.39 58.6718 20.378C59.2718 19.982 60.0458 19.784 60.9938 19.784C61.9538 19.784 62.6918 19.91 63.2078 20.162C63.7238 20.414 64.0958 20.876 64.3238 21.548C64.5638 22.208 64.6838 23.192 64.6838 24.5L64.6478 29C64.6478 29.072 64.6358 29.12 64.6118 29.144C64.5638 29.24 64.3358 29.288 63.9278 29.288C63.1838 29.288 62.8118 29.192 62.8118 29L62.5238 28.442ZM60.2198 26.156C60.2198 27.02 60.4718 27.476 60.9758 27.524C61.3238 27.524 61.5758 27.464 61.7318 27.344C62.0678 27.116 62.2358 26.264 62.2358 24.788C61.6118 24.872 61.1198 25.046 60.7598 25.31C60.3998 25.562 60.2198 25.844 60.2198 26.156ZM67.1601 19.46L66.2601 19.298L65.9901 18.344L66.4041 15.932L66.9801 15.176L69.1401 15.716L67.1601 19.46Z" fill="#FBF9F6"/>
<path d="M21.796 42.702C21.9793 42.702 22.071 42.8193 22.071 43.054C22.071 43.2887 22.0673 43.4647 22.06 43.582C22.0307 43.846 21.9133 43.9963 21.708 44.033C21.0553 44.1283 20.5713 44.176 20.256 44.176C19.1633 44.176 18.4117 43.868 18.001 43.252C17.5903 42.636 17.385 41.525 17.385 39.919C17.385 38.7457 17.473 37.851 17.649 37.235C17.8323 36.6117 18.122 36.1753 18.518 35.926C18.9213 35.6767 19.519 35.552 20.311 35.552C21.1103 35.552 21.6933 35.6767 22.06 35.926C22.1333 35.9773 22.17 36.0397 22.17 36.113C22.17 36.1863 22.1333 36.3257 22.06 36.531C21.994 36.729 21.928 36.872 21.862 36.96C21.8033 37.0407 21.741 37.081 21.675 37.081C21.609 37.081 21.5577 37.0773 21.521 37.07C20.971 36.96 20.4943 36.905 20.091 36.905C19.695 36.905 19.4347 37.125 19.31 37.565C19.1927 38.005 19.134 38.72 19.134 39.71C19.134 40.6927 19.1597 41.3783 19.211 41.767C19.2623 42.1557 19.3577 42.427 19.497 42.581C19.6363 42.735 19.8563 42.812 20.157 42.812C20.465 42.812 20.8097 42.7937 21.191 42.757C21.5797 42.7203 21.7813 42.702 21.796 42.702ZM22.8855 41.25C22.8855 40.4507 22.9552 39.8457 23.0945 39.435C23.2338 39.0243 23.4538 38.7457 23.7545 38.599C24.0552 38.445 24.4988 38.368 25.0855 38.368C25.6722 38.368 26.1158 38.445 26.4165 38.599C26.7172 38.7457 26.9372 39.0243 27.0765 39.435C27.2158 39.8457 27.2855 40.4507 27.2855 41.25C27.2855 42.35 27.1278 43.1127 26.8125 43.538C26.4972 43.9633 25.9215 44.176 25.0855 44.176C24.2495 44.176 23.6738 43.9633 23.3585 43.538C23.0432 43.1127 22.8855 42.35 22.8855 41.25ZM24.3815 41.25C24.3815 42.482 24.4988 43.098 24.7335 43.098C25.0562 43.098 25.2945 43.0467 25.4485 42.944C25.5292 42.8853 25.5842 42.779 25.6135 42.625C25.6722 42.317 25.7015 41.8587 25.7015 41.25C25.7015 40.0327 25.5842 39.424 25.3495 39.424C24.9095 39.424 24.6382 39.5267 24.5355 39.732C24.4328 39.93 24.3815 40.436 24.3815 41.25ZM33.8155 44V40.656C33.8155 39.8347 33.7568 39.424 33.6395 39.424C33.3828 39.424 33.0125 39.567 32.5285 39.853C32.5651 40.1243 32.5835 40.392 32.5835 40.656V44C32.5835 44.044 32.5798 44.0733 32.5725 44.088C32.5358 44.1467 32.3928 44.176 32.1435 44.176C31.9015 44.176 31.6485 44.1577 31.3845 44.121C31.1278 44.0843 30.9995 44.044 30.9995 44V40.249C30.9848 39.699 30.9261 39.424 30.8235 39.424C30.5595 39.424 30.2075 39.556 29.7675 39.82V44C29.7675 44.044 29.7638 44.0733 29.7565 44.088C29.7198 44.1467 29.5768 44.176 29.3275 44.176C29.0855 44.176 28.8325 44.1577 28.5685 44.121C28.3118 44.0843 28.1835 44.044 28.1835 44V38.544C28.1835 38.4267 28.3301 38.368 28.6235 38.368C29.0855 38.368 29.3495 38.4267 29.4155 38.544C29.4155 38.5587 29.4191 38.566 29.4265 38.566L29.6355 38.984C30.2515 38.5733 30.7098 38.368 31.0105 38.368C31.6558 38.368 32.0921 38.6027 32.3195 39.072C32.9941 38.6027 33.4965 38.368 33.8265 38.368C34.3691 38.368 34.7651 38.5367 35.0145 38.874C35.2711 39.2113 35.3995 39.8053 35.3995 40.656V44C35.3995 44.044 35.3958 44.0733 35.3885 44.088C35.3518 44.1467 35.2088 44.176 34.9595 44.176C34.7175 44.176 34.4645 44.1577 34.2005 44.121C33.9438 44.0843 33.8155 44.044 33.8155 44ZM36.9078 39.424H36.0278C35.9398 39.424 35.8921 39.4057 35.8848 39.369C35.8701 39.325 35.8628 39.2773 35.8628 39.226C35.8628 38.9107 35.9178 38.742 36.0278 38.72L36.9078 38.544L37.5238 37.301C37.6118 37.191 37.7804 37.136 38.0298 37.136C38.0958 37.136 38.1581 37.268 38.2168 37.532C38.2754 37.796 38.3378 38.1333 38.4038 38.544H39.4598C39.5771 38.544 39.6358 38.6907 39.6358 38.984C39.6358 39.2773 39.5771 39.424 39.4598 39.424H38.3928V42.922L38.5688 44.165V44.176C38.5761 44.22 38.5761 44.2493 38.5688 44.264C38.5321 44.3227 38.3488 44.352 38.0188 44.352C37.6888 44.352 37.4908 44.286 37.4248 44.154L36.9078 43.109V39.424ZM39.9978 41.25C39.9978 40.4507 40.0675 39.8457 40.2068 39.435C40.3462 39.0243 40.5662 38.7457 40.8668 38.599C41.1675 38.445 41.6112 38.368 42.1978 38.368C42.7845 38.368 43.2282 38.445 43.5288 38.599C43.8295 38.7457 44.0495 39.0243 44.1888 39.435C44.3282 39.8457 44.3978 40.4507 44.3978 41.25C44.3978 42.35 44.2402 43.1127 43.9248 43.538C43.6095 43.9633 43.0338 44.176 42.1978 44.176C41.3618 44.176 40.7862 43.9633 40.4708 43.538C40.1555 43.1127 39.9978 42.35 39.9978 41.25ZM41.4938 41.25C41.4938 42.482 41.6112 43.098 41.8458 43.098C42.1685 43.098 42.4068 43.0467 42.5608 42.944C42.6415 42.8853 42.6965 42.779 42.7258 42.625C42.7845 42.317 42.8138 41.8587 42.8138 41.25C42.8138 40.0327 42.6965 39.424 42.4618 39.424C42.0218 39.424 41.7505 39.5267 41.6478 39.732C41.5452 39.93 41.4938 40.436 41.4938 41.25ZM45.3178 44V38.544C45.3178 38.4267 45.4498 38.368 45.7138 38.368C45.9778 38.368 46.2271 38.3863 46.4618 38.423C46.6964 38.4597 46.8138 38.5 46.8138 38.544V44C46.8138 44.044 46.8101 44.0733 46.8028 44.088C46.7661 44.1467 46.6268 44.176 46.3848 44.176C46.1428 44.176 45.9044 44.1577 45.6698 44.121C45.4351 44.0843 45.3178 44.044 45.3178 44ZM45.9998 37.136C45.4718 37.136 45.2078 36.872 45.2078 36.344C45.2078 35.816 45.4718 35.552 45.9998 35.552C46.5278 35.552 46.7918 35.816 46.7918 36.344C46.7918 36.872 46.5278 37.136 45.9998 37.136ZM50.846 39.842L50.78 39.82L50.362 39.611C50.0466 39.4863 49.7753 39.424 49.548 39.424C49.218 39.4387 49.053 39.5963 49.053 39.897C49.053 40.0143 49.1153 40.1097 49.24 40.183C49.372 40.2563 49.4783 40.315 49.559 40.359C49.6396 40.3957 49.757 40.4507 49.911 40.524C50.461 40.7587 50.868 41.019 51.132 41.305C51.4033 41.591 51.539 41.8733 51.539 42.152C51.539 42.7607 51.3776 43.252 51.055 43.626C50.7323 43.9927 50.2923 44.176 49.735 44.176C49.185 44.176 48.7523 44.1027 48.437 43.956C48.1216 43.8093 47.8576 43.6003 47.645 43.329C47.6156 43.3143 47.601 43.2923 47.601 43.263C47.601 43.2337 47.6046 43.197 47.612 43.153C47.6266 43.109 47.7146 42.9917 47.876 42.801C48.0373 42.603 48.1656 42.504 48.261 42.504C48.2903 42.504 48.3196 42.5187 48.349 42.548C48.7376 42.856 49.1153 43.01 49.482 43.01C49.6873 43.01 49.8413 42.9513 49.944 42.834C50.0466 42.7167 50.098 42.5883 50.098 42.449C50.098 42.3097 50.0393 42.196 49.922 42.108C49.8046 42.02 49.658 41.9357 49.482 41.855C49.3133 41.767 49.2216 41.7193 49.207 41.712C49.1923 41.7047 49.1703 41.6937 49.141 41.679C49.119 41.6643 49.097 41.6533 49.075 41.646C48.701 41.4627 48.382 41.2353 48.118 40.964C47.8613 40.6853 47.733 40.3773 47.733 40.04C47.733 39.4533 47.8833 39.028 48.184 38.764C48.492 38.5 48.976 38.368 49.636 38.368C49.8853 38.368 50.1236 38.3973 50.351 38.456C50.659 38.5367 50.879 38.632 51.011 38.742H51.022C51.0806 38.7787 51.1136 38.8227 51.121 38.874C51.1356 38.9253 51.132 39.0353 51.11 39.204C51.0366 39.6293 50.9486 39.842 50.846 39.842ZM54.3554 44.176C53.5707 44.176 53.0244 43.9633 52.7164 43.538C52.4157 43.1127 52.2654 42.35 52.2654 41.25C52.2654 40.458 52.3351 39.8567 52.4744 39.446C52.6137 39.028 52.8227 38.7457 53.1014 38.599C53.3874 38.445 53.8054 38.368 54.3554 38.368C54.9054 38.368 55.3197 38.445 55.5984 38.599C55.8844 38.753 56.0934 39.039 56.2254 39.457C56.3574 39.875 56.4234 40.469 56.4234 41.239C56.4234 41.283 56.4234 41.327 56.4234 41.371C56.4234 41.415 56.3354 41.4553 56.1594 41.492C55.9907 41.5287 55.7854 41.547 55.5434 41.547H53.8494C53.8641 42.405 53.9264 42.8927 54.0364 43.01C54.1024 43.0687 54.2087 43.098 54.3554 43.098C55.3161 43.098 55.9724 43.0503 56.3244 42.955C56.3391 42.9477 56.3501 42.944 56.3574 42.944C56.4087 42.9293 56.4491 42.9587 56.4784 43.032C56.5151 43.1053 56.5334 43.2777 56.5334 43.549C56.5334 43.8203 56.4747 43.9707 56.3574 44C56.0567 44.1173 55.3894 44.176 54.3554 44.176ZM53.8494 39.809V40.667H54.9604C54.9311 39.8163 54.8467 39.391 54.7074 39.391C54.4581 39.391 54.2527 39.4277 54.0914 39.501C53.9301 39.5743 53.8494 39.677 53.8494 39.809Z" fill="#FBF9F6"/>
<line x1="16" y1="40.5" x2="6" y2="40.5" stroke="#FBF9F6"/>
<line x1="68" y1="40.5" x2="58" y2="40.5" stroke="#FBF9F6"/>
</svg>
