<svg width="41" height="41" viewBox="0 0 41 41" fill="none" xmlns="http://www.w3.org/2000/svg">
<g clip-path="url(#clip0_155_357)">
<path d="M20.5 10.25C22.387 10.25 23.9167 8.72027 23.9167 6.83329C23.9167 4.94632 22.387 3.41663 20.5 3.41663C18.613 3.41663 17.0833 4.94632 17.0833 6.83329C17.0833 8.72027 18.613 10.25 20.5 10.25Z" fill="#61CF7C"/>
<path d="M32.4583 22.2083V18.7917C29.8275 18.8258 27.1796 17.5104 25.5054 15.6654L23.3017 13.2225C23.0113 12.8979 22.6525 12.6417 22.2596 12.4538C22.2425 12.4538 22.2425 12.4367 22.2254 12.4367H22.2083C21.6104 12.095 20.9271 11.9242 20.1754 11.9925C18.3817 12.1463 17.0833 13.735 17.0833 15.5288V25.625C17.0833 27.5042 18.6208 29.0417 20.5 29.0417H29.0417V37.5833H32.4583V28.1875C32.4583 26.3083 30.9208 24.7708 29.0417 24.7708H23.9167V18.8771C26.1204 20.705 29.4688 22.1913 32.4583 22.2083ZM21.9179 30.75C21.2175 32.7317 19.3213 34.1667 17.0833 34.1667C14.2475 34.1667 11.9583 31.8775 11.9583 29.0417C11.9583 26.8038 13.3933 24.9246 15.375 24.2071V20.6708C11.48 21.4567 8.54167 24.9075 8.54167 29.0417C8.54167 33.7567 12.3683 37.5833 17.0833 37.5833C21.2175 37.5833 24.6683 34.645 25.4542 30.75H21.9179Z" fill="#61CF7C"/>
</g>
<defs>
<clipPath id="clip0_155_357">
<rect width="41" height="41" fill="white"/>
</clipPath>
</defs>
</svg>
