<svg width="10" height="11" viewBox="0 0 10 11" fill="none" xmlns="http://www.w3.org/2000/svg">
<g clip-path="url(#clip0_149_164)">
<path d="M3.33333 4.95H2.22222V6.05H3.33333V4.95ZM5.55556 4.95H4.44444V6.05H5.55556V4.95ZM7.77778 4.95H6.66667V6.05H7.77778V4.95ZM8.88889 1.1H8.33333V0H7.22222V1.1H2.77778V0H1.66667V1.1H1.11111C0.494444 1.1 0.00555555 1.595 0.00555555 2.2L0 9.9C0 10.505 0.494444 11 1.11111 11H8.88889C9.5 11 10 10.505 10 9.9V2.2C10 1.595 9.5 1.1 8.88889 1.1ZM8.88889 9.9H1.11111V3.85H8.88889V9.9Z" fill="#F8EEE2"/>
</g>
<defs>
<clipPath id="clip0_149_164">
<rect width="10" height="11" fill="white"/>
</clipPath>
</defs>
</svg>
