<svg width="10" height="10" viewBox="0 0 10 10" fill="none" xmlns="http://www.w3.org/2000/svg">
<path d="M1.11111 10C0.805556 10 0.543981 9.8912 0.326389 9.67361C0.108796 9.45602 0 9.19444 0 8.88889V1.11111C0 0.805556 0.108796 0.543981 0.326389 0.326389C0.543981 0.108796 0.805556 0 1.11111 0H8.88889C9.19444 0 9.45602 0.108796 9.67361 0.326389C9.8912 0.543981 10 0.805556 10 1.11111V8.88889C10 9.19444 9.8912 9.45602 9.67361 9.67361C9.45602 9.8912 9.19444 10 8.88889 10H1.11111ZM5 1.66667C4.2963 1.66667 3.67593 1.91204 3.13889 2.40278C2.60185 2.89352 2.33333 3.56019 2.33333 4.40278C2.33333 5.0787 2.59722 5.74537 3.125 6.40278C3.65278 7.06019 4.15278 7.59722 4.625 8.01389C4.68056 8.06019 4.74074 8.09491 4.80556 8.11806C4.87037 8.1412 4.93519 8.15278 5 8.15278C5.06481 8.15278 5.12963 8.1412 5.19444 8.11806C5.25926 8.09491 5.31944 8.06019 5.375 8.01389C5.84722 7.59722 6.34722 7.06019 6.875 6.40278C7.40278 5.74537 7.66667 5.0787 7.66667 4.40278C7.66667 3.56019 7.39815 2.89352 6.86111 2.40278C6.32407 1.91204 5.7037 1.66667 5 1.66667ZM5 5.13889C4.80556 5.13889 4.6412 5.07176 4.50694 4.9375C4.37269 4.80324 4.30556 4.63889 4.30556 4.44444C4.30556 4.25 4.37269 4.08565 4.50694 3.95139C4.6412 3.81713 4.80556 3.75 5 3.75C5.19444 3.75 5.3588 3.81713 5.49306 3.95139C5.62731 4.08565 5.69444 4.25 5.69444 4.44444C5.69444 4.63889 5.62731 4.80324 5.49306 4.9375C5.3588 5.07176 5.19444 5.13889 5 5.13889Z" fill="#F8EEE2"/>
</svg>
