<svg width="34" height="40" viewBox="0 0 34 40" fill="none" xmlns="http://www.w3.org/2000/svg">
<path d="M0 29.4737C0 31.3263 0.82875 32.9895 2.125 34.1474V37.8947C2.125 39.0526 3.08125 40 4.25 40H6.375C7.54375 40 8.5 39.0526 8.5 37.8947V35.7895H25.5V37.8947C25.5 39.0526 26.4562 40 27.625 40H29.75C30.9188 40 31.875 39.0526 31.875 37.8947V34.1474C33.1713 32.9895 34 31.3263 34 29.4737V8.42105C34 1.05263 26.3925 0 17 0C7.6075 0 0 1.05263 0 8.42105V29.4737ZM7.4375 31.5789C5.67375 31.5789 4.25 30.1684 4.25 28.4211C4.25 26.6737 5.67375 25.2632 7.4375 25.2632C9.20125 25.2632 10.625 26.6737 10.625 28.4211C10.625 30.1684 9.20125 31.5789 7.4375 31.5789ZM26.5625 31.5789C24.7988 31.5789 23.375 30.1684 23.375 28.4211C23.375 26.6737 24.7988 25.2632 26.5625 25.2632C28.3262 25.2632 29.75 26.6737 29.75 28.4211C29.75 30.1684 28.3262 31.5789 26.5625 31.5789ZM29.75 18.9474H4.25V8.42105H29.75V18.9474Z" fill="#61CF7C"/>
</svg>
