<svg width="185" height="95" viewBox="0 0 185 95" fill="none" xmlns="http://www.w3.org/2000/svg">
<mask id="mask0_163_471" style="mask-type:alpha" maskUnits="userSpaceOnUse" x="0" y="0" width="185" height="95">
<rect width="185" height="95" fill="#D9D9D9"/>
</mask>
<g mask="url(#mask0_163_471)">
<g filter="url(#filter0_d_163_471)">
<path fill-rule="evenodd" clip-rule="evenodd" d="M166.976 10.1593C160.851 15.9984 150.397 23.3408 138.733 29.9967L133.739 32.8465L131.562 32.8258C129.272 32.804 121.165 32.7541 111.022 32.6992C102.905 32.6553 99.8431 32.5916 99.7871 32.4653C99.7614 32.4075 99.7503 31.4968 99.7621 30.4417C99.7743 29.3865 99.6792 28.111 99.5507 27.6072C99.3257 26.7236 98.5128 25.6091 97.9385 25.3964C97.6942 25.3059 97.6547 24.3072 97.7287 20.1024L97.7355 19.7124L98.6014 19.7368C99.0778 19.7503 99.6221 19.5943 99.8113 19.3905L100.155 19.0198L100.156 18.1665C100.157 17.6088 100.012 17.2093 99.7385 17.0136C99.121 16.5726 94.6901 16.6072 94.185 17.0571C93.6501 17.5337 93.6031 18.4862 94.0814 19.1663L94.4616 19.7071L95.1656 19.6916C95.5528 19.683 95.9036 19.7736 95.945 19.8928C95.9867 20.0122 95.9969 21.281 95.9679 22.7129L95.9152 25.3162L95.2853 25.9231C94.4439 26.7339 94.0795 28.0727 94.0382 30.5066C94.0198 31.5882 93.9998 32.4901 93.9938 32.5106C93.9725 32.5832 90.5795 32.5664 89.4821 32.4884L88.3711 32.4092L88.344 31.7585C88.3292 31.4008 88.332 30.4678 88.3501 29.6849C88.3682 28.9023 88.1999 27.7545 87.9757 27.1341L87.5682 26.0068L86.8368 25.5805C86.4347 25.3464 86.138 25.0415 86.1777 24.9036C86.2174 24.7657 86.2603 23.6133 86.2728 22.3428C86.2853 21.0725 86.3211 19.9461 86.3522 19.8401C86.3832 19.7341 86.7836 19.6133 87.2417 19.572C88.2103 19.4844 88.4702 19.2903 88.7146 18.4717C88.9414 17.7113 88.6263 16.9991 87.9519 16.7493C87.3686 16.5332 83.4525 16.4908 82.9614 16.6953C82.5123 16.8824 82.1807 18.2158 82.4391 18.7969L82.6598 19.2935L83.6135 19.4944L84.5671 19.6956L84.5353 22.4691L84.5034 25.2427L84.1697 25.49C83.0056 26.3532 82.6644 27.3427 82.6194 29.9867C82.6011 31.0684 82.5547 32.0602 82.5164 32.1907C82.4555 32.3987 77.6024 32.457 77.061 32.2564C76.9481 32.2146 76.8776 31.3813 76.9044 30.405C76.975 27.8422 76.7506 26.7837 75.9511 25.9084C75.5755 25.4972 75.1676 25.1234 75.0447 25.0779C74.8741 25.0147 74.7351 19.9973 74.8894 19.4704C74.9064 19.4124 75.2553 19.4145 75.6645 19.4754C77.0279 19.6782 77.8496 18.1751 77.0201 16.9955L76.6632 16.4878L74.1547 16.4497L71.646 16.4116L71.2993 16.7856C70.7892 17.3352 70.749 18.523 71.2235 19.0189L71.6274 19.4409L72.3809 19.4564L73.1346 19.4719L73.1159 22.187L73.0974 24.9022L72.4203 25.6934C71.5329 26.7306 71.237 27.8155 71.1926 30.1961C71.1724 31.2718 71.1212 32.1718 71.0785 32.1961C71.036 32.2206 68.364 32.2175 65.1408 32.1895C61.4739 32.1576 58.5976 32.2719 57.4558 32.4948C53.8926 33.191 50.204 35.4145 47.6267 38.42C45.9184 40.4124 45.9757 40.3629 45.4005 40.3373C45.1134 40.3247 42.7216 40.298 40.0857 40.2782C37.4497 40.2587 30.7894 40.1894 25.2849 40.1244C19.7805 40.0593 15.1108 40.0161 14.9079 40.0283C14.6584 40.0432 14.5411 39.8934 14.5449 39.5645C14.5542 38.7643 13.935 37.6268 13.2627 37.2088C11.9836 36.4136 10.093 37.2162 9.64308 38.7454C9.31072 39.875 9.45403 46.8598 9.82753 47.738C10.2637 48.7632 11.2109 49.3426 12.2913 49.245C13.4261 49.1422 14.0908 48.4769 14.4735 47.0601L14.7865 45.9019L19.1737 45.9561C21.5866 45.986 24.9341 46.0183 26.6123 46.028C28.2906 46.0376 32.6981 46.0836 36.4068 46.1304L43.1499 46.2153L42.7621 48.4357C41.7346 54.3211 42.7254 60.1013 45.5353 64.6131C47.8031 68.2544 50.381 70.54 54.009 72.1256C56.7241 73.312 58.2547 73.5582 63.234 73.6081C65.5395 73.631 68.1585 73.6645 69.0539 73.6823C73.1172 73.7631 82.3982 73.8571 98.4399 73.9804C100.896 73.999 107.408 74.0722 112.911 74.1426C124.833 74.2949 125.136 74.2849 127.129 73.6764C131.034 72.4836 133.905 70.0709 136.109 66.1295L137.14 64.2852L137.749 61.7896C138.398 59.1245 138.518 57.3002 138.199 54.9192C137.311 48.3025 132.56 42.7223 126.818 41.5539C125.887 41.3645 121.851 41.186 117.249 41.1305C101.956 40.9461 99.7557 40.9098 99.7353 40.8414C99.7241 40.8036 99.7144 40.2487 99.7136 39.6082L99.7121 38.4436L102.575 38.4883C104.15 38.5129 106.762 38.5414 108.38 38.5514C113.738 38.5844 120.19 38.6354 125.043 38.6832C127.677 38.7089 130.537 38.728 131.398 38.7252L132.964 38.7202L135.277 40.0162C141.668 43.5958 149.932 49.1241 155.951 53.8462C156.798 54.5111 157.076 54.8368 156.85 54.8988C156.669 54.9484 156.563 55.0817 156.613 55.1951C156.664 55.3085 156.876 55.3248 157.086 55.231L157.468 55.0605L159.178 56.4937C160.118 57.2818 161.834 58.8313 162.99 59.9369C164.146 61.0423 165.136 61.9219 165.189 61.8911C165.402 61.769 166.68 58.7596 167.66 56.0701C170.485 48.3209 171.689 38.2938 171.089 27.5203C170.82 22.6922 169.467 13.8629 168.422 10.1175L168.128 9.06144L166.976 10.1593ZM124.967 47.1438C124.844 47.1512 123.179 47.135 121.266 47.1079C119.352 47.0806 115.779 47.0392 113.324 47.0156C103.97 46.9259 100.359 46.8868 99.9883 46.8705C99.7524 46.8603 99.603 47.008 99.5999 47.2542C99.5972 47.4744 99.5637 50.0919 99.5256 53.071C99.4086 62.1636 99.3726 67.8152 99.4306 67.9458C99.5418 68.1963 123.819 68.4222 125.149 68.1852C126.512 67.9425 128.772 66.589 129.956 65.3064C134.119 60.7957 134.211 54.2895 130.173 49.8768L129.096 48.6992L127.142 47.9147C126.068 47.4832 125.089 47.1364 124.967 47.1438ZM90.968 38.3689C89.5878 38.3666 88.4326 38.4598 88.4011 38.5758C88.166 39.4381 88.2004 40.5885 88.4639 40.6861C88.8155 40.8164 92.9858 40.92 93.5682 40.8129L93.9577 40.7413L93.9499 39.626C93.9456 39.0124 93.8376 38.4794 93.7098 38.4414C93.5821 38.4035 92.3483 38.3709 90.968 38.3689ZM82.2675 38.2339C82.1915 38.2772 80.9472 38.3011 79.5024 38.2868L76.8754 38.2607L76.8379 39.4157C76.8174 40.0507 76.8647 40.5924 76.9432 40.6193C77.0218 40.6462 78.2618 40.6793 79.6987 40.6929L82.3113 40.7176L82.4052 40.225C82.5341 39.5478 82.4365 38.137 82.2675 38.2339ZM69.6384 38.144C68.9761 38.1503 66.6706 38.1392 64.5152 38.1188C62.3597 38.0987 59.9952 38.137 59.2605 38.2042C57.8823 38.3301 55.769 39.0732 54.3923 39.916L53.6059 40.3977L54.2511 40.398C55.1 40.3986 70.2282 40.6146 70.6881 40.6326L71.0436 40.6468L71.0554 39.4227C71.062 38.7496 71.0167 38.1839 70.9549 38.1655C70.8932 38.1473 70.3007 38.1376 69.6384 38.144ZM90.7593 46.7493L88.0917 46.7529L88.1247 48.4247C88.1429 49.344 88.1294 52.0615 88.0946 54.4637C87.9503 64.4214 87.9291 67.5833 88.005 67.7685C88.069 67.9243 93.332 68.1161 93.5841 67.9717C93.6486 67.9348 93.6805 65.516 93.7843 52.7374C93.8104 49.516 93.7407 46.8497 93.6293 46.8127C93.5179 46.7756 92.2264 46.7471 90.7593 46.7493ZM79.6027 46.6112C78.1043 46.6025 76.8449 46.6117 76.8041 46.6312C76.7634 46.6507 76.7295 47.3204 76.7287 48.1193C76.728 48.9183 76.7 51.5656 76.6666 54.0022C76.6332 56.4388 76.6103 58.7122 76.6157 59.0544C76.621 59.3964 76.5993 61.4757 76.5672 63.6745C76.5353 65.8737 76.6037 67.7077 76.7193 67.7506C77.151 67.9105 81.8745 67.8969 82.0443 67.7353C82.1415 67.6426 82.2442 65.5986 82.2724 63.193C82.3502 56.5625 82.4049 46.6013 82.3636 46.6149C82.3435 46.6216 81.1011 46.6199 79.6027 46.6112ZM66.6592 46.4519C64.5021 46.4374 59.6656 46.4053 55.9113 46.3809C52.1571 46.3563 49.0058 46.3818 48.9085 46.4375C48.6102 46.6083 47.699 50.1145 47.5886 51.5163C47.5313 52.2434 47.5906 53.8024 47.7205 54.9808L47.9566 57.1234L48.9636 59.4056C51.1647 64.3939 55.0407 67.2861 59.9492 67.6031C62.1022 67.742 70.4807 67.8271 70.6815 67.7123C70.7482 67.6741 70.8168 65.9824 70.8341 63.9532C70.8515 61.9238 70.9006 57.1876 70.9432 53.4279C70.9858 49.6681 70.9218 46.5666 70.8009 46.5352C70.6801 46.5038 68.8164 46.4664 66.6592 46.4519Z" fill="#534F4B"/>
</g>
</g>
<defs>
<filter id="filter0_d_163_471" x="-1.5433" y="2.0614" width="189.783" height="93.1633" filterUnits="userSpaceOnUse" color-interpolation-filters="sRGB">
<feFlood flood-opacity="0" result="BackgroundImageFix"/>
<feColorMatrix in="SourceAlpha" type="matrix" values="0 0 0 0 0 0 0 0 0 0 0 0 0 0 0 0 0 0 127 0" result="hardAlpha"/>
<feOffset dx="3" dy="7"/>
<feGaussianBlur stdDeviation="7"/>
<feComposite in2="hardAlpha" operator="out"/>
<feColorMatrix type="matrix" values="0 0 0 0 0 0 0 0 0 0 0 0 0 0 0 0 0 0 0.25 0"/>
<feBlend mode="normal" in2="BackgroundImageFix" result="effect1_dropShadow_163_471"/>
<feBlend mode="normal" in="SourceGraphic" in2="effect1_dropShadow_163_471" result="shape"/>
</filter>
</defs>
</svg>
